<svg width="98" height="71" viewBox="0 0 98 71" fill="none" xmlns="http://www.w3.org/2000/svg">
<g clip-path="url(#clip0_0_490)">
<path d="M70.4996 6.42624C70.7854 6.42162 71.0708 6.4175 71.3567 6.41288C71.3582 6.41288 71.3603 6.41288 71.3618 6.41288V0.0955689C71.3618 0.0955689 71.3598 0.0955689 71.3592 0.0955689C69.3474 0.0596021 67.336 0.0411049 65.3242 0.0267182C63.3123 0.0113038 61.3004 0.00565193 59.288 0.00102762L56.2702 0L53.2524 0.00667955C51.2406 0.00976242 49.2282 0.0236353 47.2163 0.035453C43.1926 0.0621712 39.1683 0.103276 35.1446 0.156712C33.1327 0.178806 31.1203 0.214773 29.1085 0.245602L26.0907 0.293386L25.8999 0.297497C25.796 0.301607 25.6906 0.308801 25.5836 0.321132C25.3695 0.345281 25.1509 0.386386 24.9327 0.447016C24.4959 0.567248 24.0633 0.768662 23.6839 1.03482C23.3034 1.30046 22.9762 1.62775 22.7167 1.98639C22.4567 2.34555 22.2623 2.73656 22.131 3.14555C22.0002 3.55455 21.933 3.98307 21.9356 4.42135C21.9382 4.85911 22.0126 5.30819 22.1657 5.73979C22.3171 6.17088 22.5492 6.58244 22.8346 6.93234C23.1194 7.28379 23.4538 7.57101 23.7919 7.78989L23.9552 7.89574L24.07 7.95123C27.8291 9.77012 31.5938 11.5777 35.3627 13.3766C37.7974 14.5373 40.2347 15.6933 42.6736 16.8463C39.9571 21.6916 38.5263 27.1606 38.5263 32.7349H44.8819C44.8819 28.0978 46.1085 23.5526 48.4326 19.5593L49.5239 20.0715C50.4693 20.5155 51.4142 20.9599 52.3649 21.3931C54.2651 22.2619 56.1829 23.0974 58.1187 23.8969C60.0551 24.6953 62.0107 25.4568 63.9915 26.1694C64.9819 26.5255 65.9791 26.8693 66.9845 27.1955C67.4885 27.3569 67.992 27.5182 68.5006 27.6703C69.0088 27.8234 69.519 27.9724 70.0369 28.1065L70.0711 28.0397C69.6586 27.7006 69.2388 27.3764 68.8165 27.0568C68.3947 26.7357 67.9682 26.4238 67.5423 26.1124C66.6878 25.4928 65.824 24.8901 64.954 24.2997C63.2141 23.1195 61.4483 21.9891 59.6638 20.8947C57.8789 19.8018 56.0753 18.7444 54.2547 17.7208C53.345 17.2075 52.4295 16.7061 51.5145 16.2036L50.9847 15.9127C55.8019 10.12 62.8238 6.66722 70.5006 6.42675L70.4996 6.42624ZM33.3612 6.32862C33.9551 6.33684 34.5496 6.34506 35.1435 6.35174C39.1673 6.40517 43.1915 6.44576 47.2153 6.473C48.7531 6.48224 50.2915 6.49252 51.8293 6.49817C49.3869 8.29805 47.2003 10.4304 45.3419 12.8242C42.8188 11.4472 40.2937 10.0733 37.7659 8.70551C36.2984 7.91167 34.8298 7.11988 33.3607 6.32964L33.3612 6.32862Z" fill="#2B1845"/>
<path d="M63.2378 32.7332C67.7248 32.7332 71.3623 29.1176 71.3623 24.6576C71.3623 20.1976 67.7248 16.582 63.2378 16.582C58.7507 16.582 55.1133 20.1976 55.1133 24.6576C55.1133 29.1176 58.7507 32.7332 63.2378 32.7332Z" fill="#2B1845"/>
<path d="M25.428 45.7749V70.2662H20.3032V68.1601C18.1347 69.7765 15.5723 70.6582 12.7143 70.6582C5.71666 70.6582 0 64.9765 0 58.0205C0 51.0645 5.71666 45.3828 12.7143 45.3828C15.5723 45.3828 18.1844 46.3627 20.3032 47.9303V45.7749H25.428ZM12.7137 65.2699C16.8042 65.2699 20.0075 62.0858 20.0075 58.02C20.0075 53.9542 16.8042 50.7706 12.7137 50.7706C8.62333 50.7706 5.42046 53.9547 5.42046 58.02C5.42046 62.0853 8.62384 65.2699 12.7137 65.2699Z" fill="#2B1845"/>
<path d="M48.1216 45.7734C45.2635 53.9538 42.3558 62.0849 39.4486 70.2648H35.1116C32.2535 62.0844 29.3949 53.9533 26.4883 45.7734H32.3523C33.781 50.2796 35.1121 54.835 36.59 59.2928L37.1819 61.1051C37.1819 61.2032 37.231 61.3008 37.2801 61.399C37.4771 61.2032 37.7733 59.9295 38.0193 59.3905L42.2576 45.8223C44.2286 45.8223 46.1505 45.7734 48.1216 45.7734Z" fill="#2B1845"/>
<path d="M98.0003 45.7749V70.2662H92.8755V68.1601C90.7075 69.7765 88.1446 70.6582 85.2865 70.6582C78.2889 70.6582 72.5723 64.9765 72.5723 58.0205C72.5723 51.0645 78.2889 45.3828 85.2865 45.3828C88.1446 45.3828 90.7566 46.3627 92.8755 47.9303V45.7749H98.0003ZM85.2865 65.2699C89.3764 65.2699 92.5798 62.0858 92.5798 58.02C92.5798 53.9542 89.3769 50.7706 85.2865 50.7706C81.1961 50.7706 77.9927 53.9547 77.9927 58.02C77.9927 62.0853 81.1956 65.2699 85.2865 65.2699Z" fill="#2B1845"/>
<path d="M70.9636 59.2111V45.8242H65.4925V60.1272C65.4925 63.7018 62.9291 65.2232 60.0694 65.2232C57.2098 65.2232 54.6516 62.7754 54.6516 59.8328V45.8247H49.2285V60.1806C49.2285 60.3913 49.2337 60.5963 49.2445 60.8018C49.4244 63.897 50.9075 66.6505 53.169 68.5141C53.1794 68.5193 53.1851 68.5244 53.1954 68.5352C55.0754 70.0777 57.4905 71.0041 60.1227 71.0041C62.1987 71.0041 64.1423 70.425 65.7897 69.4195C68.6602 67.6823 70.6571 64.6554 70.9641 61.1492C70.9957 60.8332 71.0117 60.5069 71.0117 60.1806C71.0117 59.8544 70.9957 59.5281 70.9641 59.2121L70.9636 59.2111Z" fill="#2B1845"/>
</g>
<defs>
<clipPath id="clip0_0_490">
<rect width="98" height="71" fill="white"/>
</clipPath>
</defs>
</svg>
