<svg width="35" height="35" viewBox="0 0 35 35" fill="none" xmlns="http://www.w3.org/2000/svg">
<path d="M19.832 10.666L12.582 17.916L19.832 25.166L20.9987 23.9993L14.9154 17.916L20.9987 11.8327L19.832 10.666Z" fill="#2E2E2E"/>
<path d="M17.5 0C7.83333 0 0 7.83333 0 17.5C0 27.1667 7.83333 35 17.5 35C27.1667 35 35 27.1667 35 17.5C35 7.83333 27.1667 0 17.5 0ZM17.5 33.3333C8.75 33.3333 1.66667 26.25 1.66667 17.5C1.66667 8.75 8.75 1.66667 17.5 1.66667C26.25 1.66667 33.3333 8.75 33.3333 17.5C33.3333 26.25 26.25 33.3333 17.5 33.3333Z" fill="#2E2E2E"/>
</svg>
