<svg width="10" height="10" viewBox="0 0 10 10" fill="none" xmlns="http://www.w3.org/2000/svg">
<path d="M8.1279 0.000260919C8.30167 0.0649689 8.36012 0.193341 8.36012 0.373898C8.35751 3.33899 8.35829 6.30408 8.35829 9.26916V9.41424C8.60382 9.41424 8.84047 9.41345 9.07687 9.41476C9.12174 9.41476 9.16871 9.41711 9.2115 9.42937C9.35318 9.47007 9.43406 9.59584 9.41841 9.74221C9.40406 9.87763 9.29291 9.98539 9.15253 9.99843C9.1267 10.0008 9.10061 9.99974 9.07452 9.99974C6.16474 9.99974 3.25497 9.99974 0.345455 9.99974C0.137764 9.99974 0.0078257 9.89511 0.000259034 9.72238C-0.00730763 9.5473 0.120021 9.4158 0.30423 9.4145C0.551321 9.41241 0.798412 9.41397 1.06194 9.41397V9.2783C1.06194 6.31008 1.06272 3.3416 1.06011 0.373376C1.06011 0.192819 1.11882 0.064708 1.29233 0H8.12816L8.1279 0.000260919ZM6.29338 9.40849H7.76548V0.594375H1.65371V9.40823H3.1266C3.1266 9.36414 3.1266 9.32578 3.1266 9.28743C3.1266 8.5746 3.12607 7.86176 3.12686 7.14919C3.12686 6.95063 3.24323 6.83348 3.44231 6.83322C4.28847 6.83218 5.13463 6.83218 5.98106 6.83322C6.17831 6.83322 6.29285 6.95194 6.29338 7.15232C6.29416 7.57214 6.29364 7.99196 6.29364 8.41178C6.29364 8.74028 6.29364 9.06904 6.29364 9.40876L6.29338 9.40849ZM5.70422 7.42525H3.71888V9.40771H5.70422V7.42525Z" fill="#6F3EB2"/>
<path d="M3.3583 3.31741C3.13077 3.31741 2.90299 3.31846 2.67547 3.31715C2.4743 3.31611 2.35115 3.19635 2.35036 2.99648C2.3488 2.53491 2.34854 2.07309 2.35036 1.61152C2.35115 1.41661 2.47326 1.29503 2.66843 1.29424C3.12999 1.29242 3.59182 1.29268 4.05339 1.29424C4.25351 1.29503 4.37327 1.41661 4.37379 1.61935C4.3751 2.07778 4.37536 2.53622 4.37379 2.99465C4.37301 3.19556 4.25116 3.31585 4.05052 3.31715C3.8196 3.31846 3.58895 3.31741 3.35804 3.31741H3.3583ZM3.78568 1.88627H2.94343V2.7233H3.78568V1.88627Z" fill="#6F3EB2"/>
<path d="M6.05124 3.3179C5.82685 3.3179 5.60246 3.31842 5.37833 3.3179C5.16542 3.31712 5.04618 3.19866 5.04592 2.98496C5.04487 2.53305 5.04513 2.08114 5.04592 1.62923C5.04644 1.41449 5.16411 1.29525 5.37676 1.29473C5.83207 1.29368 6.28711 1.29368 6.74241 1.29473C6.94958 1.29525 7.06935 1.41501 7.06987 1.6227C7.07117 2.07801 7.07117 2.53305 7.06987 2.98836C7.06935 3.20048 6.9488 3.31738 6.73406 3.31816C6.50654 3.31894 6.27876 3.31816 6.05124 3.31816V3.3179ZM6.47706 2.72952V1.8878H5.64003V2.72952H6.47706Z" fill="#6F3EB2"/>
<path d="M3.36248 4.02286C3.59366 4.02286 3.82483 4.02181 4.05575 4.02312C4.25144 4.02416 4.37303 4.14314 4.37381 4.33987C4.37564 4.80222 4.37564 5.26431 4.37381 5.72666C4.37303 5.91974 4.25613 6.04107 4.06514 6.04237C3.59653 6.0455 3.12766 6.0455 2.65905 6.04237C2.46805 6.04107 2.35116 5.91896 2.35064 5.7264C2.34907 5.26405 2.34881 4.80196 2.35064 4.33961C2.35142 4.14366 2.47327 4.02442 2.66922 4.02312C2.9004 4.02181 3.13157 4.02286 3.36248 4.02286ZM2.9411 5.45087H3.78361V4.61436H2.9411V5.45087Z" fill="#6F3EB2"/>
<path d="M6.06009 4.0231C6.29101 4.0231 6.52166 4.02206 6.75257 4.02336C6.94748 4.02467 7.06881 4.14417 7.06959 4.34064C7.07142 4.80221 7.07142 5.26404 7.06959 5.7256C7.06881 5.9226 6.95087 6.04184 6.75284 6.04288C6.29127 6.04523 5.82944 6.04523 5.36787 6.04288C5.1641 6.0421 5.04642 5.92338 5.0459 5.72091C5.0446 5.26247 5.0446 4.80404 5.0459 4.3456C5.04642 4.14287 5.16618 4.02415 5.36761 4.0231C5.59853 4.0218 5.82918 4.02284 6.06009 4.0231ZM5.63767 4.61278V5.44929H6.47783V4.61278H5.63767Z" fill="#6F3EB2"/>
</svg>
