<svg width="20" height="20" viewBox="0 0 20 20" fill="none" xmlns="http://www.w3.org/2000/svg">
<rect width="20" height="20" rx="10" fill="black" fill-opacity="0.05"/>
<path d="M13.7811 6.78043V8.32773H5.30965V6.78034C5.30965 6.47203 5.55717 6.22273 5.86488 6.21997H5.87013H6.12985C6.18016 6.21997 6.22599 6.203 6.25937 6.16963C6.29275 6.13626 6.30976 6.09043 6.30976 6.04006C6.30976 5.98976 6.29278 5.94393 6.25942 5.91055C6.22605 5.87716 6.18022 5.86016 6.12985 5.86016H5.87013H5.87012C5.36193 5.86025 4.95 6.27227 4.95 6.78036V14.131C4.95 14.6392 5.36202 15.0512 5.87013 15.0512H13.2208C13.7289 15.0512 14.141 14.6392 14.141 14.131V6.78036C14.141 6.27225 13.7289 5.86023 13.2208 5.86023H12.922C12.8717 5.86023 12.8259 5.8772 12.7925 5.91057C12.7591 5.94393 12.7421 5.98977 12.7421 6.04013C12.7421 6.09044 12.7591 6.13627 12.7925 6.16965C12.8258 6.20303 12.8717 6.22004 12.922 6.22004H13.2207C13.5308 6.22004 13.7811 6.47043 13.7811 6.78043ZM13.7812 8.68752V14.1311C13.7812 14.4411 13.5308 14.6914 13.2208 14.6914H5.87013C5.56011 14.6914 5.30974 14.4411 5.30974 14.1311V8.68752H13.7812Z" fill="#231F20" stroke="black" stroke-width="0.1"/>
<path d="M7.85351 5.99006H7.84661V6.04006C7.84661 6.09037 7.86358 6.1362 7.89695 6.16958C7.93031 6.20296 7.97615 6.21997 8.02651 6.21997H11.0525C11.1028 6.21997 11.1486 6.203 11.182 6.16963C11.2154 6.13626 11.2324 6.09043 11.2324 6.04006C11.2324 5.98976 11.2154 5.94393 11.1821 5.91055C11.1487 5.87716 11.1029 5.86016 11.0525 5.86016H8.02651C7.95185 5.86016 7.87617 5.91 7.85351 5.99006Z" fill="#231F20" stroke="black" stroke-width="0.1"/>
<path d="M6.24883 10.7145L6.24883 10.7145C6.24893 10.9629 6.44005 11.1542 6.68846 11.1542H7.33782C7.5862 11.1542 7.77745 10.9629 7.77745 10.7145V10.0652C7.77745 9.81679 7.58621 9.62554 7.33782 9.62554H6.68846C6.44008 9.62554 6.24883 9.81678 6.24883 10.0652L6.24883 10.7145ZM6.60865 10.0652C6.60865 10.0376 6.61762 10.0184 6.62971 10.0063C6.6418 9.99426 6.66092 9.98527 6.68855 9.98527H7.33791C7.36551 9.98527 7.38463 9.99424 7.39673 10.0063C7.40882 10.0184 7.41782 10.0375 7.41782 10.0652V10.7145C7.41782 10.7421 7.40884 10.7613 7.39675 10.7733C7.38466 10.7854 7.36554 10.7944 7.33791 10.7944H6.68855C6.66095 10.7944 6.64183 10.7855 6.62973 10.7734C6.61764 10.7613 6.60865 10.7422 6.60865 10.7145V10.0652Z" fill="#231F20" stroke="black" stroke-width="0.1"/>
<path d="M9.15537 11.1542H9.80472C10.0531 11.1542 10.2444 10.9629 10.2444 10.7145V10.0652C10.2444 9.81679 10.0531 9.62554 9.80472 9.62554H9.15537C8.90698 9.62554 8.71573 9.81678 8.71573 10.0652V10.7145C8.71573 10.9629 8.90698 11.1542 9.15537 11.1542ZM9.07546 10.0652C9.07546 10.0376 9.08444 10.0184 9.09653 10.0063C9.10861 9.99426 9.12773 9.98527 9.15537 9.98527H9.80472C9.83232 9.98527 9.85145 9.99424 9.86354 10.0063C9.87564 10.0184 9.88463 10.0375 9.88463 10.0652V10.7145C9.88463 10.7421 9.87565 10.7613 9.86356 10.7733C9.85147 10.7854 9.83236 10.7944 9.80472 10.7944H9.15537C9.12777 10.7944 9.10864 10.7855 9.09654 10.7734C9.08445 10.7613 9.07546 10.7422 9.07546 10.7145V10.0652Z" fill="#231F20" stroke="black" stroke-width="0.1"/>
<path d="M11.6239 11.1542H12.2733C12.5216 11.1542 12.7129 10.9629 12.7129 10.7145V10.0652C12.7129 9.81679 12.5216 9.62554 12.2733 9.62554H11.6239C11.3755 9.62554 11.1843 9.81678 11.1843 10.0652V10.7145C11.1843 10.9629 11.3755 11.1542 11.6239 11.1542ZM11.5441 10.0652C11.5441 10.0376 11.5531 10.0184 11.5652 10.0063C11.5772 9.99426 11.5964 9.98527 11.624 9.98527H12.2733C12.3009 9.98527 12.3201 9.99424 12.3322 10.0063C12.3443 10.0184 12.3533 10.0375 12.3533 10.0652V10.7145C12.3533 10.7421 12.3443 10.7613 12.3322 10.7733C12.3201 10.7854 12.301 10.7944 12.2733 10.7944H11.624C11.5964 10.7944 11.5773 10.7855 11.5652 10.7734C11.5531 10.7613 11.5441 10.7422 11.5441 10.7145V10.0652Z" fill="#231F20" stroke="black" stroke-width="0.1"/>
<path d="M6.24883 13.1816L6.24883 13.1816C6.24893 13.43 6.44006 13.6212 6.68846 13.6212H7.33782C7.5862 13.6212 7.77745 13.43 7.77745 13.1816V12.5322C7.77745 12.2838 7.58621 12.0926 7.33782 12.0926H6.68846C6.44008 12.0926 6.24883 12.2838 6.24883 12.5322L6.24883 13.1816ZM6.60865 12.5323C6.60865 12.5047 6.61762 12.4856 6.62971 12.4735C6.6418 12.4614 6.66092 12.4524 6.68855 12.4524H7.33791C7.36551 12.4524 7.38463 12.4614 7.39673 12.4735C7.40882 12.4856 7.41782 12.5047 7.41782 12.5323V13.1817C7.41782 13.2093 7.40884 13.2284 7.39675 13.2405C7.38466 13.2526 7.36554 13.2616 7.33791 13.2616H6.68855C6.66095 13.2616 6.64183 13.2526 6.62973 13.2405C6.61764 13.2284 6.60865 13.2093 6.60865 13.1817V12.5323Z" fill="#231F20" stroke="black" stroke-width="0.1"/>
<path d="M9.15538 13.6212H9.80474C10.0531 13.6212 10.2444 13.43 10.2444 13.1816V12.5322C10.2444 12.2838 10.0531 12.0926 9.80474 12.0926H9.15538C8.907 12.0926 8.71575 12.2838 8.71575 12.5322V13.1816C8.71575 13.43 8.907 13.6212 9.15538 13.6212ZM9.07547 12.5323C9.07547 12.5047 9.08445 12.4856 9.09654 12.4735C9.10863 12.4614 9.12775 12.4524 9.15538 12.4524H9.80474C9.83234 12.4524 9.85146 12.4614 9.86356 12.4735C9.87565 12.4856 9.88464 12.5047 9.88464 12.5323V13.1817C9.88464 13.2093 9.87567 13.2284 9.86358 13.2405C9.85149 13.2526 9.83237 13.2616 9.80474 13.2616H9.15538C9.12778 13.2616 9.10866 13.2526 9.09656 13.2405C9.08447 13.2284 9.07547 13.2093 9.07547 13.1817V12.5323Z" fill="#231F20" stroke="black" stroke-width="0.1"/>
<path d="M11.6239 13.6212H12.2732C12.5216 13.6212 12.7129 13.43 12.7129 13.1816V12.5322C12.7129 12.2838 12.5216 12.0926 12.2732 12.0926H11.6239C11.3755 12.0926 11.1843 12.2838 11.1843 12.5322V13.1816C11.1843 13.43 11.3755 13.6212 11.6239 13.6212ZM11.5441 12.5323C11.5441 12.5047 11.553 12.4856 11.5651 12.4735C11.5772 12.4614 11.5963 12.4524 11.624 12.4524H12.2733C12.3009 12.4524 12.3201 12.4614 12.3322 12.4735C12.3442 12.4856 12.3532 12.5047 12.3532 12.5323V13.1817C12.3532 13.2093 12.3443 13.2284 12.3322 13.2405C12.3201 13.2526 12.301 13.2616 12.2733 13.2616H11.624C11.5964 13.2616 11.5773 13.2526 11.5652 13.2405C11.5531 13.2284 11.5441 13.2093 11.5441 13.1817V12.5323Z" fill="#231F20" stroke="black" stroke-width="0.1"/>
<path d="M12.5825 6.68834V6.68834L12.5825 5.38964C12.5825 5.38963 12.5825 5.38963 12.5825 5.38963C12.5825 5.14125 12.3912 4.95 12.1428 4.95H11.8831C11.6347 4.95 11.4436 5.14116 11.4436 5.38964V6.68834C11.4436 6.93673 11.6348 7.12798 11.8832 7.12798H12.1429C12.3913 7.12798 12.5825 6.93673 12.5825 6.68834ZM11.8033 5.38964V5.38964C11.8033 5.36203 11.8123 5.34291 11.8244 5.33081C11.8365 5.31872 11.8556 5.30973 11.8832 5.30973H12.1429C12.1705 5.30973 12.1896 5.3187 12.2017 5.33078C12.2138 5.34286 12.2227 5.36198 12.2227 5.38964V6.68834C12.2227 6.71594 12.2138 6.73507 12.2017 6.74717C12.1896 6.75926 12.1705 6.76825 12.1428 6.76825H11.8831C11.8555 6.76825 11.8364 6.75927 11.8243 6.74718C11.8122 6.7351 11.8032 6.71598 11.8032 6.68835C11.8032 6.68835 11.8032 6.68834 11.8032 6.68834L11.8033 5.38964Z" fill="#231F20" stroke="black" stroke-width="0.1"/>
<path d="M6.94617 7.12798H6.94619L7.20589 7.12789C7.20589 7.12789 7.2059 7.12789 7.20591 7.12789C7.45428 7.12788 7.64552 6.93663 7.64552 6.68825V5.38964C7.64552 5.14125 7.45428 4.95 7.20589 4.95H6.94617C6.69779 4.95 6.50653 5.14125 6.50653 5.38964V6.68834C6.50653 6.93673 6.69778 7.12798 6.94617 7.12798ZM6.86625 6.68834V5.38964C6.86625 5.36203 6.87523 5.34291 6.88732 5.33081C6.89941 5.31872 6.91853 5.30973 6.94616 5.30973H7.20588C7.23348 5.30973 7.25261 5.31871 7.2647 5.3308C7.27679 5.34288 7.28579 5.362 7.28579 5.38964V6.68834C7.28579 6.71594 7.27681 6.73507 7.26472 6.74717C7.25263 6.75926 7.23351 6.76825 7.20588 6.76825H6.94622C6.91854 6.76822 6.8994 6.75921 6.88731 6.74712C6.87523 6.73504 6.86625 6.71594 6.86625 6.68834Z" fill="#231F20" stroke="black" stroke-width="0.1"/>
</svg>
