<svg width="20" height="20" viewBox="0 0 20 20" fill="none" xmlns="http://www.w3.org/2000/svg">
<rect width="20" height="20" rx="10" fill="black" fill-opacity="0.05"/>
<path d="M4.95134 7.92779L4.95137 7.92779C4.79268 7.22116 5.00706 6.48233 5.51925 5.97014L6.36343 5.12596C6.36344 5.12595 6.36345 5.12594 6.36345 5.12594C6.5079 4.98142 6.70405 4.9 6.90873 4.9C7.11335 4.9 7.3095 4.98142 7.45394 5.12594C7.45394 5.12594 7.45395 5.12595 7.45396 5.12596L9.0587 6.73063L9.05872 6.73065C9.20312 6.87511 9.28464 7.07126 9.28464 7.27591C9.28464 7.48047 9.2034 7.67665 9.05869 7.8212C8.81673 8.06309 8.48919 8.39065 8.27274 8.61125L8.27253 8.61156L8.26746 8.61664L8.2628 8.62139C8.23145 8.65486 8.22164 8.70373 8.23879 8.7483C8.42654 9.06096 8.82586 9.63019 9.59882 10.4031L9.59883 10.4031C10.3718 11.1761 10.9414 11.5758 11.2551 11.7671C11.3 11.7837 11.351 11.7728 11.3852 11.7385L11.3854 11.7384L12.1807 10.9432L12.1807 10.9432L12.2514 11.0139C12.3772 10.888 12.5479 10.8172 12.726 10.8172C12.9041 10.8172 13.0748 10.8882 13.2006 11.0139L4.95134 7.92779ZM4.95134 7.92779L4.95177 7.92951L4.95235 7.93197L4.95234 7.93197C5.20603 8.99687 5.86125 10.7135 7.57479 12.427C9.28767 14.1399 11.0041 14.7952 12.0697 15.0477L4.95134 7.92779ZM6.9929 5.58045C6.97012 5.55929 6.93987 5.54732 6.90872 5.54732C6.87603 5.54732 6.84439 5.56046 6.82115 5.58365L5.97702 6.42778L5.97701 6.42779C5.62218 6.78262 5.47341 7.29426 5.58266 7.7839C5.81801 8.77004 6.43114 10.3678 8.03253 11.9692C9.63407 13.5707 11.2318 14.1838 12.2179 14.4173C12.7068 14.5265 13.218 14.3781 13.5727 14.0237C13.5727 14.0237 13.5727 14.0236 13.5728 14.0236L13.5731 14.0233L13.5733 14.0231L13.5737 14.0227C13.8108 13.7874 14.0743 13.5241 14.2905 13.3081C14.3352 13.2633 14.378 13.2206 14.418 13.1806C14.4412 13.1574 14.4543 13.1257 14.4543 13.093C14.4543 13.0604 14.4412 13.0287 14.4181 13.0056L12.8135 11.401C12.7903 11.3778 12.7586 11.3646 12.7259 11.3646C12.6933 11.3646 12.6616 11.3778 12.6384 11.401C12.6384 11.401 12.6384 11.401 12.6384 11.401L11.8433 12.1961L11.8433 12.1961L11.7726 12.1254C11.5708 12.3274 11.2633 12.3796 11.0062 12.2556L6.9929 5.58045ZM6.9929 5.58045L6.99616 5.58371L8.60081 7.18828C8.62399 7.2115 8.63713 7.24322 8.63713 7.27585C8.63713 7.30845 8.62401 7.34013 8.60088 7.36334L6.9929 5.58045Z" fill="black" stroke="black" stroke-width="0.2"/>
</svg>
