<svg width="20" height="20" viewBox="0 0 20 20" fill="none" xmlns="http://www.w3.org/2000/svg">
<rect width="20" height="20" rx="10" fill="black" fill-opacity="0.05"/>
<path d="M15.6394 10.8173C15.5598 10.8762 15.4882 10.9535 15.3994 10.9902C14.9915 11.1609 14.5797 11.3228 14.1672 11.482C14.0818 11.5149 14.0486 11.5547 14.0489 11.6515C14.0531 12.6626 14.0516 13.6736 14.0516 14.6851C14.0516 14.9357 13.9869 15 13.7351 15C10.5956 15 7.45604 15 4.31687 15C4.06966 15 4.00307 14.9323 4.00307 14.6812C4.00307 12.7762 4.00537 10.8716 4.00001 8.96659C3.99925 8.73736 4.04019 8.63403 4.30616 8.52765C6.2127 7.76687 8.12 7.00915 10.0273 6.24991C11.0318 5.85 12.0356 5.44895 13.0402 5.04866C13.279 4.95337 13.3651 4.99049 13.4596 5.22737C14.1729 7.01872 14.8863 8.80969 15.6 10.601C15.6111 10.6286 15.6264 10.6546 15.6394 10.6814V10.8176V10.8173ZM4.46497 14.5366H13.5874V9.06953H4.46497V14.537V14.5366ZM5.40255 8.58199C5.40446 8.59041 5.40638 8.59844 5.40791 8.60686C5.83575 8.60686 6.26359 8.60763 6.69105 8.60533C6.7209 8.60533 6.75266 8.58773 6.77983 8.57127C6.8403 8.53492 6.89349 8.48326 6.95778 8.45762C7.84867 8.09942 8.74033 7.74391 9.63275 7.38954C10.2898 7.12855 10.9477 6.87024 11.6047 6.61001C11.723 6.56333 11.8167 6.59164 11.8979 6.68655C12.2002 7.0413 12.5836 7.21006 13.0505 7.18404C13.1791 7.17677 13.2683 7.22614 13.3172 7.34898C13.4726 7.73855 13.6291 8.12774 13.7879 8.51617C13.8021 8.55099 13.8277 8.59347 13.8591 8.60686C14.0241 8.67843 14.0516 8.71363 14.0516 8.89541C14.0516 9.56205 14.0516 10.2283 14.0516 10.8949V11.0381C14.4144 10.8934 14.7596 10.7556 15.1139 10.6144C14.4362 8.91225 13.7623 7.22078 13.0861 5.52242C10.5194 6.54419 7.9608 7.5629 5.40217 8.58161L5.40255 8.58199ZM7.87355 8.58658C7.87623 8.59156 7.87929 8.59615 7.88197 8.60112H13.328C13.2124 8.31028 13.0964 8.03207 12.9923 7.74927C12.9617 7.66661 12.9189 7.64288 12.837 7.63829C12.4049 7.6138 12.031 7.44809 11.7161 7.15381C11.6579 7.09947 11.6151 7.08875 11.5397 7.11898C10.3514 7.59581 9.16128 8.06919 7.9719 8.54334C7.9386 8.55673 7.90608 8.57204 7.87355 8.58658Z" fill="black"/>
<path d="M9.03231 14.0854C8.10851 14.0854 7.18432 14.0862 6.26052 14.0846C6.10209 14.0846 6.04392 14.0402 5.99226 13.8918C5.84033 13.4559 5.54873 13.1597 5.11017 13.0127C4.98197 12.9699 4.91959 12.8876 4.91959 12.7517C4.92036 12.1234 4.91692 11.4946 4.92074 10.8662C4.92189 10.6902 4.96437 10.6473 5.13122 10.5873C5.54835 10.4369 5.83421 10.1545 5.98384 9.73579C6.04507 9.56473 6.09444 9.5257 6.27277 9.52226C6.44306 9.51881 6.61336 9.51996 6.78404 9.51996C8.45407 9.52034 10.1237 9.52072 11.7938 9.52264C11.9595 9.52264 12.0161 9.56741 12.0697 9.72163C12.2182 10.1502 12.5082 10.4376 12.9345 10.5896C13.0907 10.6451 13.1366 10.6986 13.1374 10.8628C13.1397 11.4912 13.1397 12.1199 13.1374 12.7483C13.137 12.904 13.0892 12.9626 12.9403 13.0146C12.5033 13.1666 12.2124 13.462 12.0639 13.8994C12.0146 14.0448 11.9587 14.085 11.8052 14.0854C10.8814 14.0858 9.95726 14.0854 9.03346 14.0854H9.03231ZM9.02542 13.6323C9.86618 13.6323 10.7066 13.6311 11.5473 13.6342C11.6365 13.6342 11.6858 13.6135 11.7264 13.5263C11.9086 13.1337 12.2025 12.8474 12.594 12.6649C12.664 12.6323 12.6866 12.5979 12.6858 12.5225C12.6824 12.0415 12.6827 11.5608 12.6858 11.0798C12.6858 11.0113 12.6701 10.9749 12.6024 10.9439C12.1983 10.7583 11.9017 10.4606 11.7142 10.0572C11.6866 9.99755 11.6571 9.97459 11.5898 9.97459C9.88187 9.9765 8.17433 9.9765 6.46641 9.97497C6.40633 9.97497 6.37303 9.98951 6.34624 10.0484C6.16102 10.4579 5.86062 10.7564 5.45382 10.9462C5.39489 10.9738 5.37001 11.004 5.3704 11.0717C5.37346 11.5566 5.37346 12.0411 5.3704 12.5259C5.37001 12.5967 5.39183 12.6316 5.45688 12.6618C5.85258 12.8455 6.1484 13.1348 6.33247 13.5305C6.37188 13.6151 6.41781 13.6346 6.50353 13.6346C7.34429 13.6315 8.18466 13.6327 9.02542 13.6327V13.6323Z" fill="black"/>
<path d="M10.397 11.802C10.397 12.559 9.77933 13.1774 9.02659 13.1747C8.27079 13.1717 7.65849 12.5548 7.6604 11.7971C7.66194 11.0459 8.275 10.4328 9.02544 10.4316C9.78201 10.4301 10.397 11.0447 10.397 11.802ZM9.93968 11.799C9.93815 11.2961 9.5325 10.8893 9.03118 10.8878C8.52604 10.8867 8.11542 11.2984 8.11618 11.8055C8.11695 12.3064 8.52374 12.7136 9.02621 12.7159C9.53173 12.7182 9.94121 12.3076 9.93968 11.799Z" fill="black"/>
<path d="M6.85904 11.8093C6.85522 11.9961 6.701 12.1457 6.51386 12.1446C6.32252 12.1434 6.16868 11.9838 6.17519 11.7929C6.18169 11.6069 6.34165 11.4554 6.52458 11.4611C6.70942 11.4672 6.86287 11.6268 6.85904 11.8093ZM6.64512 11.8338C6.64512 11.8158 6.64589 11.7979 6.64627 11.7799C6.60188 11.75 6.55634 11.6964 6.51348 11.6984C6.47636 11.6999 6.41513 11.7638 6.4136 11.8021C6.41207 11.838 6.47177 11.9039 6.50927 11.9073C6.55213 11.9111 6.59958 11.8606 6.64551 11.8338H6.64512Z" fill="black"/>
<path d="M11.201 11.8046C11.1998 11.6167 11.3495 11.4625 11.5358 11.459C11.7222 11.4556 11.8868 11.619 11.8849 11.8054C11.8826 11.991 11.7283 12.1425 11.5412 12.1429C11.3533 12.1429 11.2021 11.9929 11.201 11.805V11.8046ZM11.6709 11.8299C11.6709 11.8126 11.6713 11.795 11.6717 11.7778C11.6269 11.748 11.581 11.6944 11.5374 11.6963C11.5006 11.6978 11.4398 11.7625 11.4383 11.8008C11.4371 11.8367 11.4976 11.903 11.5347 11.9056C11.5779 11.9087 11.6254 11.8574 11.6709 11.8299Z" fill="black"/>
</svg>
