<svg width="20" height="20" viewBox="0 0 20 20" fill="none" xmlns="http://www.w3.org/2000/svg">
<rect width="20" height="20" rx="10" fill="black" fill-opacity="0.05"/>
<path fill-rule="evenodd" clip-rule="evenodd" d="M15 7.07143C15 6.78714 14.8871 6.51467 14.6861 6.31394C14.4853 6.11289 14.2128 6 13.9286 6H6.07143C5.78714 6 5.51467 6.11288 5.31394 6.31394C5.11289 6.51467 5 6.78716 5 7.07143V12.7857C5 13.07 5.11288 13.3425 5.31394 13.5432C5.51467 13.7443 5.78716 13.8571 6.07143 13.8571H13.9286C14.2129 13.8571 14.4853 13.7443 14.6861 13.5432C14.8871 13.3425 15 13.07 15 12.7857V7.07143ZM14.2857 7.17929L10.6861 10.1789C10.2886 10.51 9.71147 10.51 9.314 10.1789L5.71441 7.17929V12.7856C5.71441 12.8802 5.75188 12.9714 5.81908 13.0381C5.8858 13.1053 5.97692 13.1428 6.07155 13.1428H13.9287C14.0233 13.1428 14.1144 13.1053 14.1812 13.0381C14.2484 12.9714 14.2858 12.8802 14.2858 12.7856L14.2857 7.17929ZM13.7278 6.71429H6.27212L9.77131 9.63041C9.9038 9.74082 10.0959 9.74082 10.2284 9.63041L13.7278 6.71429Z" fill="black"/>
</svg>
