<svg width="13" height="15" viewBox="0 0 13 15" fill="none" xmlns="http://www.w3.org/2000/svg">
<path d="M0.320915 11.079H1.96146C2.49968 11.079 2.98993 11.2996 3.3449 11.6546C3.70131 12.0096 3.92149 12.4998 3.92149 13.0395V14.68C3.92149 14.8566 3.77854 15 3.60153 15H1.96098C1.42181 15 0.931084 14.7793 0.576111 14.4244L0.557883 14.4047C0.213463 14.0512 0.000479612 13.5686 0.000479612 13.0395V11.3989C0.000479612 11.2224 0.143428 11.079 0.320435 11.079H0.320915ZM5.05165 1.70771C4.87512 1.70771 4.73169 1.56476 4.73169 1.38775C4.73169 1.21122 4.87464 1.0678 5.05165 1.0678H11.1562C11.3327 1.0678 11.4762 1.21075 11.4762 1.38775C11.4762 1.56428 11.3332 1.70771 11.1562 1.70771H5.05165ZM5.05165 2.85225C4.87512 2.85225 4.73169 2.70931 4.73169 2.5323C4.73169 2.35577 4.87464 2.21234 5.05165 2.21234H12.1674C12.3439 2.21234 12.4874 2.35529 12.4874 2.5323C12.4874 2.70883 12.3444 2.85225 12.1674 2.85225H5.05165ZM0.320915 0H1.96146C2.49968 0 2.98993 0.220659 3.3449 0.575632C3.70131 0.930605 3.92149 1.42085 3.92149 1.96051V3.60106C3.92149 3.77758 3.77854 3.92101 3.60153 3.92101H1.96098C1.42181 3.92101 0.931084 3.70035 0.576111 3.34538L0.557883 3.32571C0.213463 2.97218 0.000479612 2.48961 0.000479612 1.96051V0.319955C0.000479612 0.143428 0.143428 0 0.320435 0H0.320915ZM1.96146 0.639431H0.64039V1.96051C0.64039 2.31644 0.782859 2.64023 1.01311 2.87864L1.02846 2.89303C1.26783 3.1324 1.59834 3.2811 1.96098 3.2811H3.28206V1.96003C3.28206 1.59738 3.13335 1.26687 2.89399 1.0275C2.6551 0.788136 2.32459 0.639431 1.96146 0.639431ZM5.05117 7.2472C4.87464 7.2472 4.73121 7.10425 4.73121 6.92725C4.73121 6.75072 4.87416 6.60729 5.05117 6.60729H11.1557C11.3323 6.60729 11.4757 6.75024 11.4757 6.92725C11.4757 7.10377 11.3327 7.2472 11.1557 7.2472H5.05117ZM5.05117 8.39175C4.87464 8.39175 4.73121 8.2488 4.73121 8.07179C4.73121 7.89527 4.87416 7.75184 5.05117 7.75184H12.1669C12.3435 7.75184 12.4869 7.89479 12.4869 8.07179C12.4869 8.24832 12.3439 8.39175 12.1669 8.39175H5.05117ZM0.320435 5.5395H1.96098C2.4992 5.5395 2.98945 5.76015 3.34442 6.11513C3.70083 6.4701 3.92101 6.96035 3.92101 7.5V9.14055C3.92101 9.31708 3.77806 9.46051 3.60106 9.46051H1.96051C1.42133 9.46051 0.930604 9.23985 0.575632 8.88487L0.557403 8.86521C0.212984 8.51167 0 8.0291 0 7.5V5.85945C0 5.68292 0.142948 5.5395 0.319955 5.5395H0.320435ZM1.96098 6.17893H0.63991V7.5C0.63991 7.85593 0.782379 8.17973 1.01263 8.41813L1.02798 8.43252C1.26735 8.67189 1.59786 8.8206 1.96051 8.8206H3.28158V7.49952C3.28158 7.13687 3.13287 6.80636 2.89351 6.567C2.65462 6.32763 2.32411 6.17893 1.96098 6.17893ZM5.05069 12.7867C4.87416 12.7867 4.73073 12.6437 4.73073 12.4667C4.73073 12.2902 4.87368 12.1468 5.05069 12.1468H11.1553C11.3318 12.1468 11.4752 12.2897 11.4752 12.4667C11.4752 12.6433 11.3323 12.7867 11.1553 12.7867H5.05069ZM5.05069 13.9312C4.87416 13.9312 4.73073 13.7883 4.73073 13.6113C4.73073 13.4348 4.87368 13.2913 5.05069 13.2913H12.1665C12.343 13.2913 12.4864 13.4343 12.4864 13.6113C12.4864 13.7878 12.3435 13.9312 12.1665 13.9312H5.05069ZM1.96098 11.7184H0.63991V13.0395C0.63991 13.3954 0.782379 13.7192 1.01263 13.9576L1.02798 13.972C1.26735 14.2114 1.59786 14.3601 1.96051 14.3601H3.28158V13.039C3.28158 12.6764 3.13287 12.3459 2.89351 12.1065C2.65462 11.8671 2.32411 11.7184 1.96098 11.7184Z" fill="#5C5C5C"/>
</svg>
