<svg width="20" height="20" viewBox="0 0 20 20" fill="none" xmlns="http://www.w3.org/2000/svg">
<rect width="20" height="20" rx="10" fill="black" fill-opacity="0.05"/>
<path d="M10.1421 13.6984L12.4203 11.4203C12.8708 10.9697 13.1776 10.3956 13.3019 9.77073C13.4262 9.1458 13.3624 8.49805 13.1185 7.90938C12.8747 7.32072 12.4617 6.81758 11.932 6.4636C11.4022 6.10961 10.7793 5.92067 10.1421 5.92067C9.50497 5.92067 8.88211 6.10961 8.35232 6.4636C7.82252 6.81758 7.40959 7.32072 7.16575 7.90938C6.92189 8.49805 6.85808 9.1458 6.98235 9.77073C7.10664 10.3956 7.41344 10.9697 7.86396 11.4203L10.1421 13.6984ZM10.1421 15L7.21319 12.071C6.6339 11.4917 6.23941 10.7537 6.07959 9.95023C5.91977 9.14672 6.0018 8.31387 6.31531 7.557C6.62882 6.80012 7.15973 6.15321 7.8409 5.69807C8.52207 5.24293 9.32291 5 10.1421 5C10.9614 5 11.7622 5.24293 12.4434 5.69807C13.1246 6.15321 13.6555 6.80012 13.969 7.557C14.2825 8.31387 14.3645 9.14672 14.2047 9.95023C14.0449 10.7537 13.6504 11.4917 13.0711 12.071L10.1421 15ZM10.1421 10.0626C10.3863 10.0626 10.6204 9.9656 10.793 9.79296C10.9656 9.62037 11.0626 9.38623 11.0626 9.1421C11.0626 8.89798 10.9656 8.66385 10.793 8.49123C10.6204 8.31861 10.3863 8.22163 10.1421 8.22163C9.89802 8.22163 9.66389 8.31861 9.49127 8.49123C9.31865 8.66385 9.22166 8.89798 9.22166 9.1421C9.22166 9.38623 9.31865 9.62037 9.49127 9.79296C9.66389 9.9656 9.89802 10.0626 10.1421 10.0626ZM10.1421 10.983C9.65389 10.983 9.18564 10.7891 8.84039 10.4438C8.49515 10.0986 8.30119 9.63036 8.30119 9.1421C8.30119 8.65386 8.49515 8.1856 8.84039 7.84035C9.18564 7.49511 9.65389 7.30115 10.1421 7.30115C10.6304 7.30115 11.0987 7.49511 11.4439 7.84035C11.7891 8.1856 11.9831 8.65386 11.9831 9.1421C11.9831 9.63036 11.7891 10.0986 11.4439 10.4438C11.0987 10.7891 10.6304 10.983 10.1421 10.983Z" fill="#151515"/>
</svg>
