<svg width="9" height="10" viewBox="0 0 9 10" fill="none" xmlns="http://www.w3.org/2000/svg">
<path d="M4.14214 8.69845L6.42032 6.42027C6.87084 5.9697 7.17764 5.39564 7.30195 4.77073C7.42621 4.1458 7.36238 3.49805 7.11854 2.90938C6.87471 2.32072 6.46174 1.81758 5.93196 1.4636C5.40218 1.10961 4.77929 0.920673 4.14214 0.920673C3.50497 0.920673 2.88211 1.10961 2.35232 1.4636C1.82252 1.81758 1.40959 2.32072 1.16575 2.90938C0.921893 3.49805 0.858077 4.1458 0.982355 4.77073C1.10664 5.39564 1.41344 5.9697 1.86396 6.42027L4.14214 8.69845ZM4.14214 10L1.21319 7.07105C0.633904 6.49175 0.23941 5.75371 0.0795881 4.95023C-0.0802331 4.14672 0.00179822 3.31387 0.315309 2.557C0.628818 1.80012 1.15973 1.15321 1.8409 0.698075C2.52207 0.242931 3.32291 0 4.14214 0C4.96136 0 5.76222 0.242931 6.44338 0.698075C7.12457 1.15321 7.65546 1.80012 7.96897 2.557C8.28249 3.31387 8.3645 4.14672 8.20471 4.95023C8.04486 5.75371 7.65039 6.49175 7.07109 7.07105L4.14214 10ZM4.14214 5.06257C4.38627 5.06257 4.62037 4.9656 4.79301 4.79296C4.96564 4.62037 5.06262 4.38623 5.06262 4.1421C5.06262 3.89798 4.96564 3.66385 4.79301 3.49123C4.62037 3.31861 4.38627 3.22163 4.14214 3.22163C3.89802 3.22163 3.66389 3.31861 3.49127 3.49123C3.31865 3.66385 3.22166 3.89798 3.22166 4.1421C3.22166 4.38623 3.31865 4.62037 3.49127 4.79296C3.66389 4.9656 3.89802 5.06257 4.14214 5.06257ZM4.14214 5.98305C3.65389 5.98305 3.18564 5.7891 2.84039 5.44383C2.49515 5.09861 2.30119 4.63036 2.30119 4.1421C2.30119 3.65386 2.49515 3.1856 2.84039 2.84035C3.18564 2.49511 3.65389 2.30115 4.14214 2.30115C4.63041 2.30115 5.09865 2.49511 5.44388 2.84035C5.78915 3.1856 5.98309 3.65386 5.98309 4.1421C5.98309 4.63036 5.78915 5.09861 5.44388 5.44383C5.09865 5.7891 4.63041 5.98305 4.14214 5.98305Z" fill="#6F3EB2"/>
</svg>
