<svg width="18" height="17" viewBox="0 0 18 17" fill="none" xmlns="http://www.w3.org/2000/svg">
<path d="M10.3679 1H15.928C16.4427 1 16.8639 1.52751 16.8639 2.17839V14.8216C16.8639 15.4725 16.447 16 15.928 16H10.3679C9.8531 16 9.43195 15.4725 9.43195 14.8216V2.17839C9.43195 1.52751 9.84885 1 10.3679 1Z" stroke="#2B1845" stroke-width="0.8" stroke-miterlimit="10"/>
<path d="M1.9359 1H7.49603C8.01078 1 8.43193 1.52751 8.43193 2.17839V14.8216C8.43193 15.4725 8.01503 16 7.49603 16H1.9359C1.42116 16 1 15.4725 1 14.8216V2.17839C1 1.52751 1.4169 1 1.9359 1Z" stroke="#2B1845" stroke-width="0.8" stroke-miterlimit="10"/>
</svg>
