<svg width="29" height="28" viewBox="0 0 29 28" fill="none" xmlns="http://www.w3.org/2000/svg">
<rect width="28.4183" height="27.6502" rx="13.8251" fill="white"/>
<path d="M18.8658 14.1659C18.9972 14.0955 19.0792 13.9604 19.0792 13.8139C19.0792 13.6674 18.9972 13.533 18.8658 13.4619L10.5974 9.03718C10.5265 8.99911 10.4453 8.98116 10.3648 8.98762C10.3515 8.98762 10.339 8.98762 10.3257 8.98762C10.1278 9.02426 9.9861 9.19377 9.98979 9.38915V15.8251C9.98832 15.9329 10.0311 16.037 10.1087 16.1132C10.1862 16.19 10.2925 16.2331 10.4032 16.2331C10.514 16.2331 10.6203 16.19 10.6978 16.1132C10.7753 16.0363 10.8181 15.9329 10.8166 15.8251V10.0687L17.819 13.8146L10.2098 17.8867C10.0991 17.9283 10.0127 18.0138 9.97134 18.1223C9.93 18.23 9.93812 18.3507 9.99422 18.452C10.0503 18.5532 10.1485 18.6272 10.2637 18.6531C10.3789 18.6797 10.5007 18.6567 10.5974 18.5906" fill="#2E2E2E"/>
</svg>
