<svg width="14" height="14" viewBox="0 0 14 14" fill="none" xmlns="http://www.w3.org/2000/svg">
<path d="M14 7.00321C14 7.35659 13.7173 7.64571 13.3575 7.64571H7.64571V13.3639C7.64571 13.7173 7.35659 14.0064 7.00321 14.0064C6.64984 14.0064 6.36072 13.7173 6.36072 13.3639V7.64571H0.642497C0.289123 7.64571 0 7.35659 0 7.00321C0 6.64984 0.289123 6.36072 0.642497 6.36072H6.36072V0.642497C6.36072 0.289123 6.64341 0 7.00321 0C7.36301 0 7.64571 0.289123 7.64571 0.642497V6.36072H13.3575C13.7173 6.36072 14 6.64984 14 7.00321Z" fill="#6F3EB2"/>
</svg>
